<?xml version="1.0" encoding="UTF-8"?><svg id="Layer_1" xmlns="http://www.w3.org/2000/svg" viewBox="0 0 318.6 62.59"><defs><style>.cls-1{fill:#fff;}.cls-2{fill:#010101;isolation:isolate;opacity:.2;}.cls-3{fill:#df0921;}.cls-4{fill:#182846;}</style></defs><path class="cls-1" d="M280.05,62.59c-.64,0-1.27-.14-1.85-.39-3.21-1.45-6.08-2.93-8.63-4.44-2.95-1.75-5.22-3.42-5.32-3.49-5.77-4.13-10.26-8.81-13.32-13.87-2.12-3.42-3.42-7.36-3.48-7.53-3.55-10.41,1.57-21.68,11.66-25.61,5.48-2.13,11.75-1.57,16.95,1.48l.1,.06c.16,.1,.84,.53,1.73,1.2,4.31-6.13,11.3-9.99,18.68-9.99,2.46,.96,5.09,1.45,7.73,1.45,5.59,2.16,9.99,6.44,12.41,12.07,2.42,5.64,2.52,11.93,.28,17.71,0,0-.56,1.44-.76,1.91-.22,.56-1.47,3.56-4.04,7.4-6.13,8.68-16.29,15.93-30.27,21.63-.65,0-1.29,.15-1.88,.42"/><path class="cls-3" d="M272.56,49.78l-.97,4.95c2.39,1.41,5.11,2.82,8.16,4.2,.08,.04,.18,.08,.3,.08,.09,0,.18-.03,.27-.07,16.33-6.65,24.41-14.31,28.57-20.21h-34.19l-2.14,11.05Zm1.5-37.22c-4.07-2.38-8.95-2.97-13.5-1.2-7.97,3.1-12.2,12.21-9.32,20.66h19.09l2.43-12.69,1.3-6.77Zm28.82-7.01c-9.36-3.63-20.02,1.4-23.95,11.22l-1.09,5.63-1.85,9.62h36.57c.32-.75,.56-1.45,.73-1.83,3.87-10.01-.99-21-10.41-24.64m-36.26,45.9l.88-4.75,1.55-7.98h-14.71c2.14,3.54,5.82,8.1,12.28,12.73"/><path class="cls-2" d="M263.56,20.16c2.91-1.59,6.28-1.77,9.19-.82l1.31-6.77c-4.07-2.38-8.95-2.97-13.5-1.2-7.97,3.1-12.2,12.21-9.32,20.66h6.16c-.46-4.76,1.88-9.51,6.16-11.87m-3.69,18.57h-5.54c2.14,3.54,5.82,8.1,12.28,12.73l.88-4.75c-4.24-3.05-6.47-6-7.62-7.98m23.17,15.04c-.07,.01-.14,.04-.2,.07-.06-.03-.13-.04-.2-.04-3.97-1.21-7.33-2.58-10.08-4.02l-.97,4.95c2.39,1.41,5.11,2.82,8.15,4.2,.08,.03,.18,.08,.3,.08,.09,0,.18-.03,.27-.08,16.33-6.65,24.41-14.31,28.57-20.21h-8.25c-3,4.41-8.24,9.69-17.6,15.04m19.83-48.21c-9.36-3.63-20.02,1.4-23.95,11.22l-1.09,5.63c1.96-7.74,9.45-12.55,16.79-10.76,7.39,1.78,12.13,9.51,10.21,17.27-.14,.68-.35,1.71-.8,3.11h8.52c.32-.75,.56-1.45,.73-1.83,3.87-10.01-.99-21-10.41-24.64"/><path class="cls-4" d="M25,26.6l-10.32,23.68h-4.33L0,26.6H4.77l7.88,18.27,7.95-18.27h4.4Zm3.89,23.68h4.23v-18.07h-4.23v18.07Zm.14-21.96c-.47-.51-.71-1.08-.71-1.73,0-1.59,1.35-2.4,2.77-2.4s2.64,.81,2.64,2.37c0,.71-.27,1.32-.74,1.76h-3.96Zm10.93,21.62c-1.39-.37-2.5-.88-3.35-1.46l1.62-3.21c1.62,1.08,4.09,1.79,6.29,1.79,2.54,0,3.79-.68,3.79-1.99s-1.22-1.59-4.06-2.03c-1.49-.24-2.71-.47-3.62-.78-1.9-.57-3.49-1.99-3.49-4.6,0-1.72,.71-3.08,2.17-4.13,1.42-1.01,3.35-1.52,5.79-1.52s5.18,.61,6.77,1.56l-1.62,3.21c-1.52-.91-3.25-1.35-5.18-1.35-2.47,0-3.79,.81-3.79,2.03,0,1.35,1.35,1.73,4.23,2.23,1.45,.24,2.64,.47,3.55,.78,1.86,.57,3.38,1.89,3.38,4.47,0,1.69-.75,3.04-2.2,4.06-1.45,1.01-3.45,1.52-5.99,1.52-1.4-.38-2.85-.57-4.3-.58m16.14,.34h4.23v-18.07h-4.23v18.07Zm.14-21.96c-.47-.51-.71-1.08-.71-1.73,0-1.59,1.35-2.4,2.77-2.4s2.64,.81,2.64,2.37c0,.71-.27,1.32-.74,1.76h-3.96Zm20.5,20.98c-.98,.81-2.47,1.22-4.06,1.22-3.96,0-6.23-2.13-6.23-6.09v-8.7h-2.98v-3.38h2.98v-4.13h4.23v4.13h4.84l-.68,3.38h-4.16v8.6c0,1.76,.88,2.71,2.5,2.71,.95,0,1.72-.24,2.37-.74l1.18,3.01Zm14.04-2.74c5.28,0,8.69-3.21,8.69-8.12s-3.42-8.12-8.69-8.12h-5.75v16.24h5.75Zm-10.15-19.96h10.35c7.55-.1,13.03,4.84,12.93,11.84,.1,7.01-5.38,11.95-12.93,11.84h-10.35V26.6Zm30.25,13.2h10.25c-.37-2.6-2.37-4.4-5.11-4.4s-4.74,1.73-5.14,4.4m14.21,2.81h-14.18c.51,2.67,2.74,4.33,5.85,4.33,2,0,3.62-.64,4.9-1.96l2.27,2.6c-1.62,1.93-4.16,2.94-7.27,2.94-5.99,0-9.98-3.89-9.98-9.27-.1-5.24,4.03-9.34,9.34-9.24,5.31,0,9.13,3.76,9.13,9.34,0,.31-.03,.71-.07,1.25m21.92-2.67v10.35h-4.23v-9.81c0-3.15-1.56-4.77-4.3-4.77-3.11,0-5.04,1.93-5.04,5.45v9.14h-4.23v-18.07h4.03v2.33c1.39-1.66,3.55-2.54,6.23-2.54,4.57,0,7.54,2.67,7.54,7.92m35.59,0v10.35h-4.23v-9.81c0-3.15-1.46-4.77-4.06-4.77-2.84,0-4.7,1.93-4.7,5.41v9.17h-4.23v-9.81c0-3.15-1.46-4.77-4.06-4.77-2.88,0-4.7,1.89-4.7,5.41v9.17h-4.23v-18.07h4.02v2.3c1.35-1.62,3.45-2.5,5.92-2.5,2.71,0,4.87,1.01,6.09,3.01,1.49-1.89,3.93-3.01,6.77-3.01,4.57,0,7.41,2.64,7.41,7.92m16.3,4.7v-2.1h-4.36c-2.44,0-3.65,.81-3.65,2.4s1.29,2.5,3.45,2.5,3.89-1.01,4.57-2.81m4.23-4.94v10.59h-3.99v-2.2c-1.05,1.59-2.98,2.44-5.69,2.44-4.09,0-6.73-2.27-6.73-5.41s2.33-5.38,7.51-5.38h4.67v-.27c0-2.54-1.52-3.92-4.5-3.92-2.03,0-4.13,.68-5.48,1.79l-1.66-3.08c1.89-1.46,4.67-2.23,7.65-2.23,5.31,0,8.22,2.54,8.22,7.68m9.44-4.84c1.22-1.89,3.35-2.84,6.43-2.84v4.03c-.33,0-.66-.04-.98-.1-3.28,0-5.24,1.96-5.24,5.58v8.76h-4.23v-18.06h4.03v2.64Zm17.56,7.68l-3.15,2.98v4.77h-4.23V25.18h4.23v15.16l8.76-8.12h5.08l-7.55,7.58,8.26,10.49h-5.14l-6.26-7.75Z"/></svg>